<mxfile host="app.diagrams.net" agent="Mozilla/5.0 (Windows NT 10.0; Win64; x64) AppleWebKit/537.36 (KHTML, like Gecko) Chrome/137.0.0.0 Safari/537.36 OPR/121.0.0.0" version="28.2.4">
  <diagram name="Page-1" id="HdiNLjd1AcjZT9bM6gXO">
    <mxGraphModel dx="831" dy="452" grid="1" gridSize="10" guides="1" tooltips="1" connect="1" arrows="1" fold="1" page="1" pageScale="1" pageWidth="827" pageHeight="1169" math="0" shadow="0">
      <root>
        <mxCell id="0" />
        <mxCell id="1" parent="0" />
        <mxCell id="0HXqpo-brhOnWOaQtwr0-1" value="" style="endArrow=none;html=1;rounded=0;" edge="1" parent="1">
          <mxGeometry width="50" height="50" relative="1" as="geometry">
            <mxPoint x="200" y="160" as="sourcePoint" />
            <mxPoint x="280" y="160" as="targetPoint" />
          </mxGeometry>
        </mxCell>
        <mxCell id="0HXqpo-brhOnWOaQtwr0-2" value="" style="endArrow=none;html=1;rounded=0;" edge="1" parent="1">
          <mxGeometry width="50" height="50" relative="1" as="geometry">
            <mxPoint x="280" y="160" as="sourcePoint" />
            <mxPoint x="440" y="280" as="targetPoint" />
          </mxGeometry>
        </mxCell>
        <mxCell id="0HXqpo-brhOnWOaQtwr0-3" value="" style="endArrow=none;html=1;rounded=0;" edge="1" parent="1">
          <mxGeometry width="50" height="50" relative="1" as="geometry">
            <mxPoint x="520" y="280" as="sourcePoint" />
            <mxPoint x="440" y="280" as="targetPoint" />
          </mxGeometry>
        </mxCell>
        <mxCell id="0HXqpo-brhOnWOaQtwr0-4" value="" style="ellipse;whiteSpace=wrap;html=1;aspect=fixed;" vertex="1" parent="1">
          <mxGeometry x="270" y="140" width="10" height="10" as="geometry" />
        </mxCell>
        <mxCell id="0HXqpo-brhOnWOaQtwr0-6" value="" style="ellipse;whiteSpace=wrap;html=1;aspect=fixed;" vertex="1" parent="1">
          <mxGeometry x="440" y="260" width="10" height="10" as="geometry" />
        </mxCell>
        <mxCell id="0HXqpo-brhOnWOaQtwr0-7" value="" style="shape=umlActor;verticalLabelPosition=bottom;verticalAlign=top;html=1;outlineConnect=0;" vertex="1" parent="1">
          <mxGeometry x="200" y="100" width="30" height="60" as="geometry" />
        </mxCell>
        <mxCell id="0HXqpo-brhOnWOaQtwr0-19" style="edgeStyle=orthogonalEdgeStyle;rounded=0;orthogonalLoop=1;jettySize=auto;html=1;" edge="1" parent="1" source="0HXqpo-brhOnWOaQtwr0-9" target="0HXqpo-brhOnWOaQtwr0-4">
          <mxGeometry relative="1" as="geometry" />
        </mxCell>
        <mxCell id="0HXqpo-brhOnWOaQtwr0-9" value="Photosensor Top" style="text;html=1;align=center;verticalAlign=middle;whiteSpace=wrap;rounded=0;" vertex="1" parent="1">
          <mxGeometry x="354" y="115" width="60" height="30" as="geometry" />
        </mxCell>
        <mxCell id="0HXqpo-brhOnWOaQtwr0-12" value="" style="edgeStyle=orthogonalEdgeStyle;rounded=0;orthogonalLoop=1;jettySize=auto;html=1;" edge="1" parent="1" source="0HXqpo-brhOnWOaQtwr0-11" target="0HXqpo-brhOnWOaQtwr0-6">
          <mxGeometry relative="1" as="geometry" />
        </mxCell>
        <mxCell id="0HXqpo-brhOnWOaQtwr0-11" value="Photosensor Bottom" style="text;html=1;align=center;verticalAlign=middle;whiteSpace=wrap;rounded=0;" vertex="1" parent="1">
          <mxGeometry x="450" y="180" width="60" height="30" as="geometry" />
        </mxCell>
        <mxCell id="0HXqpo-brhOnWOaQtwr0-13" value="" style="ellipse;whiteSpace=wrap;html=1;aspect=fixed;fillStyle=solid;fillColor=light-dark(#FFFFFF,#80FF00);" vertex="1" parent="1">
          <mxGeometry x="262.5" y="90" width="25" height="25" as="geometry" />
        </mxCell>
        <mxCell id="0HXqpo-brhOnWOaQtwr0-14" value="" style="ellipse;whiteSpace=wrap;html=1;aspect=fixed;fillColor=light-dark(#FFFFFF,#FF0000);" vertex="1" parent="1">
          <mxGeometry x="262.5" y="50" width="25" height="25" as="geometry" />
        </mxCell>
        <mxCell id="0HXqpo-brhOnWOaQtwr0-17" value="Error" style="ellipse;whiteSpace=wrap;html=1;fillColor=light-dark(#FFFFFF,#FFFF33);fontColor=light-dark(#000000,#000000);" vertex="1" parent="1">
          <mxGeometry x="245" width="60" height="40" as="geometry" />
        </mxCell>
        <mxCell id="0HXqpo-brhOnWOaQtwr0-21" style="edgeStyle=orthogonalEdgeStyle;rounded=0;orthogonalLoop=1;jettySize=auto;html=1;" edge="1" parent="1" source="0HXqpo-brhOnWOaQtwr0-20">
          <mxGeometry relative="1" as="geometry">
            <mxPoint x="360" y="220" as="targetPoint" />
          </mxGeometry>
        </mxCell>
        <mxCell id="0HXqpo-brhOnWOaQtwr0-20" value="Slide in water park" style="text;html=1;align=center;verticalAlign=middle;whiteSpace=wrap;rounded=0;" vertex="1" parent="1">
          <mxGeometry x="250" y="250" width="60" height="30" as="geometry" />
        </mxCell>
      </root>
    </mxGraphModel>
  </diagram>
</mxfile>
